<svg width="512" height="851" viewBox="0 0 512 851" fill="none" xmlns="http://www.w3.org/2000/svg">
<g clip-path="url(#clip0_1_3)">
<rect width="511.688" height="850.4" fill="#272727"/>
<path d="M29.3 180H11.6V178.8H14V157.2H11.6V156H29.3L32.09 158.79V165.21L29.6 167.7L32.09 170.19V177.21L29.3 180ZM20.9 157.2V167.1H25.19V157.2H20.9ZM20.9 168.3V178.8H25.19V168.3H20.9ZM28.4 203.19L27.47 204.12L25.55 202.2H23L20.9 204.3V217.8H23.3V219H16.79L14 216.21V202.2H11.6V201H18.11L20.24 203.1L22.34 201H26.21L28.4 203.19ZM15.29 258L12.5 255.21V242.79L15.29 240H26.81L29.6 242.79V247.71L26.81 250.5H19.4V256.8H26.3L28.82 254.28L29.75 255.21L26.96 258H15.29ZM19.4 241.2V249.3H22.7V241.2H19.4ZM15.29 297L12.8 294.51V289.89L15.29 287.4H23V280.2H19.85V285H13.55V281.49L16.04 279H27.41L29.9 281.49V295.8H32.3V297H25.49L23.69 295.17L21.86 297H15.29ZM19.85 288.6V295.8H21.2L23 294V288.6H19.85ZM17.81 309.6L20.6 312.39V336H16.49L13.7 333.21V310.8H11.3V309.6H17.81ZM33.86 334.8V336H25.4L21.35 326.97V325.8L28.13 318H31.58V319.2H28.82L23.09 325.8H28.34L32.36 334.8H33.86ZM13.85 357.9H12.5V351H32.9V357.9H31.55V352.2H26.15V373.8H28.55V375H16.85V373.8H19.25V352.2H13.85V357.9ZM33.95 412.8V414H27.44L24.65 411.21V397.2H22.25L20.3 399.15V412.8H22.1V414H16.19L13.4 411.21V388.8H11V387.6H17.51L20.3 390.39V397.29L21.59 396H28.76L31.55 398.79V412.8H33.95ZM15.29 453L12.5 450.21V437.79L15.29 435H26.81L29.6 437.79V442.71L26.81 445.5H19.4V451.8H26.3L28.82 449.28L29.75 450.21L26.96 453H15.29ZM19.4 436.2V444.3H22.7V436.2H19.4ZM12.5 471.09L15.59 468H27.44L29.54 470.1V467.7H30.89V475.8H29.54V471.96L26.78 469.2H19.4V490.8H27.47L30.17 488.1L31.1 489.03L28.13 492H15.59L12.5 488.91V471.09ZM33.95 529.8V531H27.44L24.65 528.21V514.2H22.25L20.3 516.15V529.8H22.1V531H16.19L13.4 528.21V505.8H11V504.6H17.51L20.3 507.39V514.29L21.59 513H28.76L31.55 515.79V529.8H33.95ZM15.29 570L12.8 567.51V562.89L15.29 560.4H23V553.2H19.85V558H13.55V554.49L16.04 552H27.41L29.9 554.49V568.8H32.3V570H25.49L23.69 568.17L21.86 570H15.29ZM19.85 561.6V568.8H21.2L23 567V561.6H19.85ZM17.06 588.6L12.5 584.01L17.09 579.45L21.65 584.04L17.06 588.6ZM23.3 607.8V609H16.79L14 606.21V592.2H11.6V591H18.11L20.9 593.79V607.8H23.3ZM34.4 646.8V648H27.59L25.1 645.51V631.2H23L20.9 633.3V646.8H22.4V648H11.6V646.8H14V631.2H11.6V630H18.11L20.24 632.1L22.34 630H29.21L32 632.79V646.8H34.4ZM14.15 687.3H12.8V680.85H14.15V683.1L16.85 685.8H23.18L13.1 675.12V671.49L15.59 669H24.44L26.48 671.04V668.7H27.83V675.15H26.48V672.9L23.78 670.2H18.05L28.13 680.88V684.51L25.64 687H16.19L14.15 684.96V687.3Z" fill="#FFC700"/>
</g>
<defs>
<clipPath id="clip0_1_3">
<rect width="511.688" height="850.4" fill="white"/>
</clipPath>
</defs>
</svg>
