<svg width="470" height="180" viewBox="0 0 470 180" fill="none" xmlns="http://www.w3.org/2000/svg">
<g clip-path="url(#clip0_10_2)">
<path d="M112.91 50.1089L112.473 59.1304V102.637C112.473 116.994 108.35 128.659 100.105 137.632C91.6655 146.799 80.4614 151.382 66.4927 151.382C51.5539 151.382 39.9132 146.702 31.5708 137.341C23.8104 128.756 19.9302 117.746 19.9302 104.311V47.0532H57.1074V145.198C60.8421 145.732 64.9406 145.999 69.4028 145.999C73.9136 145.999 78.4728 145.101 83.0806 143.307C87.7368 141.512 91.811 138.699 95.3032 134.867C102.87 126.622 106.701 114.569 106.798 98.7085V59.2759C106.798 57.8208 106.677 56.099 106.435 54.1104C106.241 52.1217 106.144 50.7637 106.144 50.0361C106.144 47.514 107.332 46.2529 109.708 46.2529C111.843 46.2529 112.91 47.5382 112.91 50.1089ZM197.668 143.743C200.287 143.743 201.597 144.713 201.597 146.653C201.597 147.526 201.039 148.302 199.923 148.981C198.808 149.66 196.916 150 194.249 150H126.515L169.585 77.6099H147.686C144.485 77.6099 142.035 77.7554 140.338 78.0464C138.058 78.4344 136.433 78.6284 135.463 78.6284C134.493 78.6284 133.669 78.3617 132.99 77.8281C132.359 77.2461 132.044 76.5428 132.044 75.7183C132.044 73.4386 134.445 72.2988 139.247 72.2988H202.251L161.946 144.689H185.882C189.423 144.689 191.945 144.543 193.448 144.252C195.243 143.913 196.649 143.743 197.668 143.743ZM281.99 143.743C284.463 143.743 285.7 144.713 285.7 146.653C285.7 147.526 285.167 148.302 284.1 148.981C283.033 149.66 281.189 150 278.57 150H216.948V47.0532C236.058 47.0532 255.168 47.0532 274.278 47.0532L280.244 46.835C283.881 46.835 285.7 47.902 285.7 50.0361C285.7 50.8607 285.385 51.6367 284.754 52.3643C284.172 53.0433 283.493 53.3828 282.717 53.3828C281.456 53.3828 280.122 53.2373 278.716 52.9463C276.63 52.5098 273.769 52.2915 270.131 52.2915H254.052V74.4814H267.293C267.293 74.4814 270.276 74.3602 276.242 74.1177C277.309 74.1177 278.207 74.3844 278.934 74.918C279.71 75.403 280.098 76.1063 280.098 77.0278C280.098 79.0649 278.74 80.0835 276.024 80.0835L272.896 80.0107C271.295 79.8652 269.961 79.7925 268.894 79.7925H254.052V144.689H270.131C273.72 144.689 276.266 144.543 277.77 144.252C279.565 143.913 280.971 143.743 281.99 143.743ZM296.904 151.382C296.225 151.382 295.595 151.091 295.013 150.509C294.431 149.976 294.14 149.321 294.14 148.545C294.14 146.993 295.013 145.562 296.759 144.252C298.505 142.943 299.766 141.755 300.542 140.688C300.542 140.688 306.969 132.806 319.822 117.042L293.048 72.2988H326.151L341.575 97.981C350.548 86.4373 355.374 80.132 356.053 79.0649C357.363 77.0278 358.236 75.4515 358.672 74.3359C359.594 72.1048 360.879 70.9893 362.528 70.9893C363.304 70.9893 363.983 71.256 364.565 71.7896C365.196 72.2746 365.511 72.8809 365.511 73.6084C365.511 74.3359 365.366 75.0635 365.075 75.791C364.832 76.5186 364.396 77.4401 363.765 78.5557C362.504 80.6898 360.297 83.7697 357.145 87.7954L344.849 103.438L372.859 150H339.611L323.023 122.354L305.271 144.689C302.215 148.521 300.033 150.679 298.723 151.164C298.238 151.31 297.632 151.382 296.904 151.382ZM459.073 48.9448C459.073 51.1759 456.72 52.2915 452.016 52.2915H435.137V150H397.887V52.2915H386.974C383.239 52.2915 380.668 52.4613 379.262 52.8008C377.419 53.1888 376.085 53.3828 375.26 53.3828C372.787 53.3828 371.55 52.4128 371.55 50.4727C371.55 48.193 373.951 47.0532 378.752 47.0532H443.649C446.996 47.0532 449.469 46.9077 451.07 46.6167C453.01 46.2772 454.465 46.1074 455.435 46.1074C457.86 46.1074 459.073 47.0532 459.073 48.9448Z" fill="#0041BF"/>
<g filter="url(#filter0_d_10_2)">
<path d="M112.91 50.1089L112.473 59.1304V102.637C112.473 116.994 108.35 128.659 100.105 137.632C91.6655 146.799 80.4614 151.382 66.4927 151.382C51.5539 151.382 39.9132 146.702 31.5708 137.341C23.8104 128.756 19.9302 117.746 19.9302 104.311V47.0532H57.1074V145.198C60.8421 145.732 64.9406 145.999 69.4028 145.999C73.9136 145.999 78.4728 145.101 83.0806 143.307C87.7368 141.512 91.811 138.699 95.3032 134.867C102.87 126.622 106.701 114.569 106.798 98.7085V59.2759C106.798 57.8208 106.677 56.099 106.435 54.1104C106.241 52.1217 106.144 50.7637 106.144 50.0361C106.144 47.514 107.332 46.2529 109.708 46.2529C111.843 46.2529 112.91 47.5382 112.91 50.1089ZM197.668 143.743C200.287 143.743 201.597 144.713 201.597 146.653C201.597 147.526 201.039 148.302 199.923 148.981C198.808 149.66 196.916 150 194.249 150H126.515L169.585 77.6099H147.686C144.485 77.6099 142.035 77.7554 140.338 78.0464C138.058 78.4344 136.433 78.6284 135.463 78.6284C134.493 78.6284 133.669 78.3617 132.99 77.8281C132.359 77.2461 132.044 76.5428 132.044 75.7183C132.044 73.4386 134.445 72.2988 139.247 72.2988H202.251L161.946 144.689H185.882C189.423 144.689 191.945 144.543 193.448 144.252C195.243 143.913 196.649 143.743 197.668 143.743ZM281.99 143.743C284.463 143.743 285.7 144.713 285.7 146.653C285.7 147.526 285.167 148.302 284.1 148.981C283.033 149.66 281.189 150 278.57 150H216.948V47.0532C236.058 47.0532 255.168 47.0532 274.278 47.0532L280.244 46.835C283.881 46.835 285.7 47.902 285.7 50.0361C285.7 50.8607 285.385 51.6367 284.754 52.3643C284.172 53.0433 283.493 53.3828 282.717 53.3828C281.456 53.3828 280.122 53.2373 278.716 52.9463C276.63 52.5098 273.769 52.2915 270.131 52.2915H254.052V74.4814H267.293C267.293 74.4814 270.276 74.3602 276.242 74.1177C277.309 74.1177 278.207 74.3844 278.934 74.918C279.71 75.403 280.098 76.1063 280.098 77.0278C280.098 79.0649 278.74 80.0835 276.024 80.0835L272.896 80.0107C271.295 79.8652 269.961 79.7925 268.894 79.7925H254.052V144.689H270.131C273.72 144.689 276.266 144.543 277.77 144.252C279.565 143.913 280.971 143.743 281.99 143.743ZM296.904 151.382C296.225 151.382 295.595 151.091 295.013 150.509C294.431 149.976 294.14 149.321 294.14 148.545C294.14 146.993 295.013 145.562 296.759 144.252C298.505 142.943 299.766 141.755 300.542 140.688C300.542 140.688 306.969 132.806 319.822 117.042L293.048 72.2988H326.151L341.575 97.981C350.548 86.4373 355.374 80.132 356.053 79.0649C357.363 77.0278 358.236 75.4515 358.672 74.3359C359.594 72.1048 360.879 70.9893 362.528 70.9893C363.304 70.9893 363.983 71.256 364.565 71.7896C365.196 72.2746 365.511 72.8809 365.511 73.6084C365.511 74.3359 365.366 75.0635 365.075 75.791C364.832 76.5186 364.396 77.4401 363.765 78.5557C362.504 80.6898 360.297 83.7697 357.145 87.7954L344.849 103.438L372.859 150H339.611L323.023 122.354L305.271 144.689C302.215 148.521 300.033 150.679 298.723 151.164C298.238 151.31 297.632 151.382 296.904 151.382ZM459.073 48.9448C459.073 51.1759 456.72 52.2915 452.016 52.2915H435.137V150H397.887V52.2915H386.974C383.239 52.2915 380.668 52.4613 379.262 52.8008C377.419 53.1888 376.085 53.3828 375.26 53.3828C372.787 53.3828 371.55 52.4128 371.55 50.4727C371.55 48.193 373.951 47.0532 378.752 47.0532H443.649C446.996 47.0532 449.469 46.9077 451.07 46.6167C453.01 46.2772 454.465 46.1074 455.435 46.1074C457.86 46.1074 459.073 47.0532 459.073 48.9448Z" fill="#0041BF"/>
</g>
<path d="M177.787 116.233C175.707 115.063 173.247 114.767 170.948 115.411C168.65 116.055 166.701 117.586 165.531 119.666C164.361 121.747 164.066 124.207 164.71 126.505C165.354 128.804 166.969 130.752 169.05 131.922L171.26 128L173.5 124.078L175.67 120.155L177.787 116.233Z" fill="#FA00FF"/>
<path d="M190.45 93.5C189.418 92.9245 188.557 92.1513 187.823 91.2246C187.09 90.2978 186.546 89.2357 186.223 88.0988C185.9 86.9619 185.804 85.7725 185.94 84.5985C186.077 83.4246 186.444 82.289 187.019 81.2567C187.595 80.2244 188.368 79.3155 189.294 78.582C190.221 77.8485 191.283 77.3047 192.42 76.9817C193.557 76.6586 194.747 76.5627 195.92 76.6993C197.094 76.836 198.168 77.2025 199.2 77.778L194.88 85.639L190.45 93.5Z" fill="#FFC700"/>
<path d="M284.746 167.224C283.831 167.224 283.061 166.995 282.436 166.538C281.82 166.081 281.377 165.488 281.106 164.76C280.835 164.032 280.7 163.192 280.7 162.24C280.7 161.288 280.835 160.448 281.106 159.72C281.377 158.992 281.82 158.399 282.436 157.942C283.061 157.485 283.878 157.256 284.886 157.256C285.903 157.256 286.804 157.471 287.588 157.9L287.196 158.852C286.449 158.469 285.605 158.278 284.662 158.278C283.729 158.278 283.019 158.647 282.534 159.384C282.058 160.112 281.82 161.069 281.82 162.254C281.82 163.43 282.058 164.382 282.534 165.11C283.01 165.838 283.71 166.202 284.634 166.202C285.567 166.202 286.328 166.039 286.916 165.712V162.744H284.774V161.736H287.98V166.258C286.953 166.902 285.875 167.224 284.746 167.224ZM290.493 166.174C289.98 165.483 289.723 164.592 289.723 163.5C289.723 162.408 289.98 161.521 290.493 160.84C291.007 160.149 291.772 159.804 292.789 159.804C293.816 159.804 294.591 160.149 295.113 160.84C295.636 161.521 295.897 162.408 295.897 163.5C295.897 164.592 295.636 165.483 295.113 166.174C294.591 166.855 293.816 167.196 292.789 167.196C291.772 167.196 291.007 166.855 290.493 166.174ZM291.291 161.526C290.955 162.03 290.787 162.688 290.787 163.5C290.787 164.312 290.955 164.975 291.291 165.488C291.627 165.992 292.131 166.244 292.803 166.244C293.475 166.244 293.979 165.992 294.315 165.488C294.661 164.975 294.833 164.312 294.833 163.5C294.833 162.688 294.661 162.03 294.315 161.526C293.979 161.013 293.475 160.756 292.803 160.756C292.131 160.756 291.627 161.013 291.291 161.526ZM298.068 166.174C297.554 165.483 297.298 164.592 297.298 163.5C297.298 162.408 297.554 161.521 298.068 160.84C298.581 160.149 299.346 159.804 300.364 159.804C301.39 159.804 302.165 160.149 302.688 160.84C303.21 161.521 303.472 162.408 303.472 163.5C303.472 164.592 303.21 165.483 302.688 166.174C302.165 166.855 301.39 167.196 300.364 167.196C299.346 167.196 298.581 166.855 298.068 166.174ZM298.866 161.526C298.53 162.03 298.362 162.688 298.362 163.5C298.362 164.312 298.53 164.975 298.866 165.488C299.202 165.992 299.706 166.244 300.378 166.244C301.05 166.244 301.554 165.992 301.89 165.488C302.235 164.975 302.408 164.312 302.408 163.5C302.408 162.688 302.235 162.03 301.89 161.526C301.554 161.013 301.05 160.756 300.378 160.756C299.706 160.756 299.202 161.013 298.866 161.526ZM307.546 167.196C306.743 167.196 306.085 166.893 305.572 166.286C305.059 165.679 304.802 164.807 304.802 163.668C304.802 162.52 305.124 161.591 305.768 160.882C306.421 160.163 307.247 159.804 308.246 159.804C308.741 159.804 309.24 159.893 309.744 160.07V157.2H310.808V165.6L310.948 167L310.024 167.07L309.786 165.81C309.263 166.734 308.517 167.196 307.546 167.196ZM305.866 163.64C305.866 164.48 306.043 165.124 306.398 165.572C306.753 166.02 307.205 166.244 307.756 166.244C308.316 166.244 308.787 165.969 309.17 165.418C309.553 164.858 309.744 164.069 309.744 163.052V161.106C309.277 160.873 308.778 160.756 308.246 160.756C307.555 160.756 306.986 161.027 306.538 161.568C306.09 162.1 305.866 162.791 305.866 163.64ZM314.188 157.2V161.148C314.702 160.252 315.458 159.804 316.456 159.804C317.24 159.804 317.88 160.107 318.374 160.714C318.878 161.321 319.13 162.198 319.13 163.346C319.13 164.485 318.804 165.413 318.15 166.132C317.506 166.841 316.718 167.196 315.784 167.196C314.851 167.196 314.174 166.935 313.754 166.412C313.334 165.88 313.124 165.161 313.124 164.256V157.2H314.188ZM318.066 163.36C318.066 162.511 317.908 161.867 317.59 161.428C317.273 160.98 316.825 160.756 316.246 160.756C315.677 160.756 315.196 161.013 314.804 161.526C314.412 162.039 314.207 162.828 314.188 163.892V164.256C314.188 164.844 314.31 165.325 314.552 165.698C314.804 166.062 315.182 166.244 315.686 166.244C316.377 166.244 316.946 165.978 317.394 165.446C317.842 164.905 318.066 164.209 318.066 163.36ZM322.584 170.346L321.674 170.038L322.626 167.364L319.896 160H321.044L323.158 165.852L325.244 160H326.364L322.584 170.346ZM329.999 167.196C329.159 167.196 328.463 166.902 327.913 166.314C327.371 165.726 327.101 164.863 327.101 163.724C327.101 162.585 327.423 161.647 328.067 160.91C328.711 160.173 329.546 159.804 330.573 159.804C331.226 159.804 331.753 160.005 332.155 160.406C332.556 160.798 332.757 161.293 332.757 161.89C332.757 162.478 332.449 163.019 331.833 163.514C331.226 164.009 330.339 164.256 329.173 164.256C328.865 164.256 328.538 164.242 328.193 164.214C328.258 164.877 328.459 165.381 328.795 165.726C329.14 166.071 329.555 166.244 330.041 166.244C330.853 166.244 331.529 165.992 332.071 165.488L332.575 166.174C331.865 166.855 331.007 167.196 329.999 167.196ZM330.531 160.756C329.887 160.756 329.35 160.985 328.921 161.442C328.501 161.899 328.253 162.506 328.179 163.262C328.487 163.309 328.827 163.332 329.201 163.332C330.003 163.332 330.619 163.183 331.049 162.884C331.478 162.585 331.693 162.24 331.693 161.848C331.693 161.559 331.585 161.307 331.371 161.092C331.165 160.868 330.885 160.756 330.531 160.756ZM337.158 160.91V160H338.222L338.558 157.9H339.286V160H340.924V160.91H339.286V165.474C339.286 165.987 339.496 166.244 339.916 166.244C340.233 166.244 340.579 166.109 340.952 165.838L341.344 166.552C340.803 166.981 340.275 167.196 339.762 167.196C339.249 167.196 338.861 167.075 338.6 166.832C338.348 166.58 338.222 166.127 338.222 165.474V160.91H337.158ZM342.857 166.174C342.343 165.483 342.087 164.592 342.087 163.5C342.087 162.408 342.343 161.521 342.857 160.84C343.37 160.149 344.135 159.804 345.153 159.804C346.179 159.804 346.954 160.149 347.477 160.84C347.999 161.521 348.261 162.408 348.261 163.5C348.261 164.592 347.999 165.483 347.477 166.174C346.954 166.855 346.179 167.196 345.153 167.196C344.135 167.196 343.37 166.855 342.857 166.174ZM343.655 161.526C343.319 162.03 343.151 162.688 343.151 163.5C343.151 164.312 343.319 164.975 343.655 165.488C343.991 165.992 344.495 166.244 345.167 166.244C345.839 166.244 346.343 165.992 346.679 165.488C347.024 164.975 347.197 164.312 347.197 163.5C347.197 162.688 347.024 162.03 346.679 161.526C346.343 161.013 345.839 160.756 345.167 160.756C344.495 160.756 343.991 161.013 343.655 161.526ZM357.165 167.224C355.83 167.224 354.827 166.762 354.155 165.838C353.492 164.914 353.161 163.715 353.161 162.24C353.161 160.765 353.492 159.566 354.155 158.642C354.827 157.718 355.83 157.256 357.165 157.256C358.042 157.256 358.84 157.475 359.559 157.914L359.167 158.852C358.551 158.469 357.884 158.278 357.165 158.278C356.204 158.278 355.48 158.647 354.995 159.384C354.519 160.112 354.281 161.064 354.281 162.24C354.281 163.416 354.519 164.373 354.995 165.11C355.48 165.838 356.204 166.202 357.165 166.202C357.958 166.202 358.672 166.006 359.307 165.614L359.797 166.482C358.994 166.977 358.117 167.224 357.165 167.224ZM363.467 167.196C362.627 167.196 361.932 166.902 361.381 166.314C360.84 165.726 360.569 164.863 360.569 163.724C360.569 162.585 360.891 161.647 361.535 160.91C362.179 160.173 363.015 159.804 364.041 159.804C364.695 159.804 365.222 160.005 365.623 160.406C366.025 160.798 366.225 161.293 366.225 161.89C366.225 162.478 365.917 163.019 365.301 163.514C364.695 164.009 363.808 164.256 362.641 164.256C362.333 164.256 362.007 164.242 361.661 164.214C361.727 164.877 361.927 165.381 362.263 165.726C362.609 166.071 363.024 166.244 363.509 166.244C364.321 166.244 364.998 165.992 365.539 165.488L366.043 166.174C365.334 166.855 364.475 167.196 363.467 167.196ZM363.999 160.756C363.355 160.756 362.819 160.985 362.389 161.442C361.969 161.899 361.722 162.506 361.647 163.262C361.955 163.309 362.296 163.332 362.669 163.332C363.472 163.332 364.088 163.183 364.517 162.884C364.947 162.585 365.161 162.24 365.161 161.848C365.161 161.559 365.054 161.307 364.839 161.092C364.634 160.868 364.354 160.756 363.999 160.756ZM371.341 159.804C372.871 159.804 373.637 160.784 373.637 162.744V167H372.573V162.744C372.573 161.419 372.101 160.756 371.159 160.756C370.617 160.756 370.123 161.036 369.675 161.596C369.236 162.156 369.003 162.926 368.975 163.906V167H367.911V161.4L367.771 160L368.695 159.93L368.961 161.372C369.25 160.868 369.609 160.481 370.039 160.21C370.468 159.939 370.902 159.804 371.341 159.804ZM377.715 166.23C378.126 166.23 378.471 166.132 378.751 165.936C379.031 165.74 379.171 165.497 379.171 165.208C379.171 164.909 379.092 164.676 378.933 164.508C378.775 164.331 378.602 164.205 378.415 164.13C378.238 164.055 377.981 163.971 377.645 163.878C377.309 163.775 377.053 163.691 376.875 163.626C376.698 163.551 376.488 163.439 376.245 163.29C375.788 163.01 375.559 162.534 375.559 161.862C375.559 161.181 375.788 160.667 376.245 160.322C376.703 159.977 377.239 159.804 377.855 159.804C378.238 159.804 378.621 159.855 379.003 159.958C379.395 160.061 379.689 160.168 379.885 160.28L379.493 161.134C379.045 160.891 378.499 160.77 377.855 160.77C377.529 160.77 377.239 160.859 376.987 161.036C376.745 161.204 376.623 161.423 376.623 161.694C376.623 161.955 376.698 162.161 376.847 162.31C376.997 162.459 377.151 162.567 377.309 162.632C377.468 162.697 377.711 162.777 378.037 162.87C378.364 162.963 378.625 163.052 378.821 163.136C379.027 163.211 379.255 163.332 379.507 163.5C379.993 163.827 380.235 164.345 380.235 165.054C380.235 165.754 379.993 166.286 379.507 166.65C379.031 167.014 378.434 167.196 377.715 167.196C376.745 167.196 375.923 166.883 375.251 166.258L375.825 165.488C376.339 165.983 376.969 166.23 377.715 166.23ZM382.191 166.174C381.677 165.483 381.421 164.592 381.421 163.5C381.421 162.408 381.677 161.521 382.191 160.84C382.704 160.149 383.469 159.804 384.487 159.804C385.513 159.804 386.288 160.149 386.811 160.84C387.333 161.521 387.595 162.408 387.595 163.5C387.595 164.592 387.333 165.483 386.811 166.174C386.288 166.855 385.513 167.196 384.487 167.196C383.469 167.196 382.704 166.855 382.191 166.174ZM382.989 161.526C382.653 162.03 382.485 162.688 382.485 163.5C382.485 164.312 382.653 164.975 382.989 165.488C383.325 165.992 383.829 166.244 384.501 166.244C385.173 166.244 385.677 165.992 386.013 165.488C386.358 164.975 386.531 164.312 386.531 163.5C386.531 162.688 386.358 162.03 386.013 161.526C385.677 161.013 385.173 160.756 384.501 160.756C383.829 160.756 383.325 161.013 382.989 161.526ZM390.549 167H389.485V161.4L389.345 160L390.269 159.93L390.549 161.61C390.829 161.031 391.184 160.593 391.613 160.294C392.042 159.995 392.509 159.846 393.013 159.846L393.083 160.91C391.44 161.041 390.596 162.296 390.549 164.676V167ZM394.281 165.096C394.561 165.404 394.925 165.661 395.373 165.866C395.83 166.071 396.325 166.174 396.857 166.174C397.398 166.174 397.86 166.034 398.243 165.754C398.635 165.474 398.831 165.082 398.831 164.578C398.831 164.065 398.663 163.663 398.327 163.374C398 163.085 397.599 162.865 397.123 162.716C396.656 162.567 396.185 162.408 395.709 162.24C395.242 162.072 394.841 161.797 394.505 161.414C394.178 161.022 394.015 160.509 394.015 159.874C394.015 159.006 394.295 158.353 394.855 157.914C395.424 157.475 396.091 157.256 396.857 157.256C397.911 157.256 398.784 157.475 399.475 157.914L398.915 158.81C398.383 158.474 397.692 158.306 396.843 158.306C396.395 158.306 395.998 158.432 395.653 158.684C395.307 158.936 395.135 159.309 395.135 159.804C395.135 160.429 395.457 160.887 396.101 161.176C396.381 161.307 396.689 161.423 397.025 161.526C397.37 161.629 397.711 161.75 398.047 161.89C398.392 162.03 398.705 162.198 398.985 162.394C399.629 162.833 399.951 163.519 399.951 164.452C399.951 165.376 399.652 166.071 399.055 166.538C398.467 166.995 397.72 167.224 396.815 167.224C395.611 167.224 394.551 166.795 393.637 165.936L394.281 165.096ZM407.353 167H406.289V162.744C406.289 161.419 405.818 160.756 404.875 160.756C404.334 160.756 403.839 161.036 403.391 161.596C402.953 162.156 402.719 162.926 402.691 163.906V167H401.627V157.2H402.691V161.358C402.971 160.854 403.321 160.471 403.741 160.21C404.171 159.939 404.609 159.804 405.057 159.804C406.588 159.804 407.353 160.784 407.353 162.744V167ZM409.694 158.474C409.582 158.343 409.526 158.18 409.526 157.984C409.526 157.788 409.582 157.629 409.694 157.508C409.806 157.377 409.97 157.312 410.184 157.312C410.399 157.312 410.567 157.377 410.688 157.508C410.81 157.639 410.87 157.797 410.87 157.984C410.87 158.171 410.81 158.329 410.688 158.46C410.567 158.591 410.399 158.656 410.184 158.656C409.97 158.656 409.806 158.595 409.694 158.474ZM409.666 167V160H410.73V167H409.666ZM416.44 159.804C417.243 159.804 417.901 160.107 418.414 160.714C418.928 161.321 419.184 162.198 419.184 163.346C419.184 164.485 418.858 165.413 418.204 166.132C417.56 166.841 416.739 167.196 415.74 167.196C415.246 167.196 414.746 167.107 414.242 166.93V170.15H413.178V161.4L413.038 160L413.962 159.93L414.2 161.218C414.723 160.275 415.47 159.804 416.44 159.804ZM418.12 163.374C418.12 162.525 417.943 161.876 417.588 161.428C417.234 160.98 416.781 160.756 416.23 160.756C415.689 160.756 415.227 161.022 414.844 161.554C414.462 162.086 414.261 162.847 414.242 163.836V165.852C414.728 166.113 415.227 166.244 415.74 166.244C416.431 166.244 417 165.978 417.448 165.446C417.896 164.905 418.12 164.214 418.12 163.374ZM420.787 166.986C420.656 166.837 420.591 166.65 420.591 166.426C420.591 166.202 420.656 166.02 420.787 165.88C420.917 165.731 421.104 165.656 421.347 165.656C421.599 165.656 421.79 165.731 421.921 165.88C422.061 166.02 422.131 166.202 422.131 166.426C422.131 166.65 422.061 166.837 421.921 166.986C421.79 167.126 421.599 167.196 421.347 167.196C421.104 167.196 420.917 167.126 420.787 166.986ZM423.726 166.986C423.595 166.837 423.53 166.65 423.53 166.426C423.53 166.202 423.595 166.02 423.726 165.88C423.857 165.731 424.043 165.656 424.286 165.656C424.538 165.656 424.729 165.731 424.86 165.88C425 166.02 425.07 166.202 425.07 166.426C425.07 166.65 425 166.837 424.86 166.986C424.729 167.126 424.538 167.196 424.286 167.196C424.043 167.196 423.857 167.126 423.726 166.986ZM426.666 166.986C426.535 166.837 426.47 166.65 426.47 166.426C426.47 166.202 426.535 166.02 426.666 165.88C426.796 165.731 426.983 165.656 427.226 165.656C427.478 165.656 427.669 165.731 427.8 165.88C427.94 166.02 428.01 166.202 428.01 166.426C428.01 166.65 427.94 166.837 427.8 166.986C427.669 167.126 427.478 167.196 427.226 167.196C426.983 167.196 426.796 167.126 426.666 166.986Z" fill="white"/>
<path d="M216.946 68.7782C219.333 68.7768 221.621 67.8272 223.308 66.1383C224.995 64.4495 225.942 62.1597 225.94 59.7728C225.939 57.3858 224.989 55.0972 223.3 53.4104C221.611 51.7236 219.327 50.9087 216.94 50.9102L216.94 59.7782L216.946 68.7782Z" fill="#FFC700"/>
<path d="M57.11 131.087C55.9282 131.099 54.9227 130.878 53.8264 130.436C52.73 129.995 51.7314 129.341 50.8876 128.514C50.0437 127.687 49.371 126.701 48.908 125.613C48.445 124.526 48.2008 123.358 48.1892 122.176C48.1776 120.994 48.3989 119.822 48.8404 118.725C49.282 117.629 49.9352 116.631 50.7626 115.787C51.5901 114.943 52.5757 114.27 53.6632 113.807C54.7506 113.344 55.9186 113.1 57.1004 113.088L57.1888 122.088L57.11 131.087Z" fill="#FA00FF"/>
<path d="M254.176 121.087C251.789 121.111 249.491 120.185 247.787 118.514C246.082 116.843 245.112 114.563 245.088 112.176C245.065 109.789 245.991 107.491 247.662 105.787C249.333 104.082 251.613 103.112 254 103.088L254.088 112.088L254.176 121.087Z" fill="#FA00FF"/>
<circle cx="109.5" cy="49.5" r="2.5" fill="black"/>
<circle cx="282.5" cy="50.5" r="2.5" fill="black"/>
<circle cx="297.5" cy="148.3" r="2.5" fill="black"/>
<circle cx="362.5" cy="74" r="2.5" fill="black"/>
<circle cx="374.5" cy="50.5" r="2.5" fill="black"/>
<circle cx="456" cy="49" r="2" fill="black"/>
<circle cx="283" cy="146.5" r="2" fill="black"/>
<circle cx="277.5" cy="77" r="2" fill="black"/>
<circle cx="105" cy="129" r="1" fill="black"/>
<circle cx="101" cy="135" r="1" fill="black"/>
<circle cx="135" cy="76" r="2" fill="black"/>
<circle cx="47.7118" cy="91.7118" r="9" transform="rotate(-132.113 47.7118 91.7118)" fill="#00FF0A"/>
<circle cx="48.8749" cy="96.7265" r="2.5" transform="rotate(-132.113 48.8749 96.7265)" fill="black"/>
<circle cx="42.8395" cy="90.0501" r="2.5" transform="rotate(-132.113 42.8395 90.0501)" fill="black"/>
<circle cx="32" cy="61" r="9" transform="rotate(-51.8781 32 61)" fill="#FFC700"/>
<path d="M28.7986 61.0301C29.8848 61.8824 29.2876 62.8366 28.4353 63.9228C27.5829 65.009 26.7981 65.8159 25.7119 64.9636C24.6257 64.1112 24.4361 62.5397 25.2885 61.4535C26.1409 60.3673 27.7124 60.1777 28.7986 61.0301Z" fill="black"/>
<path d="M34.3546 53.9498C35.4408 54.8021 34.8437 55.7563 33.9913 56.8425C33.139 57.9287 32.3541 58.7356 31.2679 57.8833C30.1817 57.0309 29.9922 55.4594 30.8445 54.3732C31.6969 53.287 33.2684 53.0974 34.3546 53.9498Z" fill="black"/>
<path d="M38.2335 59.5359C39.4135 60.4619 39.2116 63.1489 37.5069 65.3214C35.8022 67.4938 32.9291 68.0847 32.0601 67.4028C31.1911 66.7209 33.4421 65.6418 35.1468 63.4693C36.8515 61.2969 37.3645 58.854 38.2335 59.5359Z" fill="black"/>
<circle cx="235" cy="86" r="9" transform="rotate(22.7726 235 86)" fill="#00FF0A"/>
<path d="M239.242 84.2667C238.318 86.4666 237.057 88.0348 234.582 86.9958C232.107 85.9569 232.353 83.934 233.277 81.7341C234.2 79.5343 235.451 77.9904 237.926 79.0293C240.401 80.0683 240.165 82.0668 239.242 84.2667Z" fill="black"/>
<path d="M238.388 83.9084C237.649 85.6683 236.684 86.9413 234.916 86.1992C233.149 85.4571 233.39 83.8572 234.128 82.0973C234.867 80.3374 235.824 79.0839 237.592 79.826C239.36 80.5681 239.127 82.1484 238.388 83.9084Z" fill="#00FF0A"/>
<path d="M237.702 83.1517C237.24 84.2517 236.646 85.0511 235.585 84.6059C234.525 84.1606 234.684 83.1646 235.146 82.0646C235.608 80.9647 236.197 80.1774 237.257 80.6226C238.318 81.0679 238.163 82.0518 237.702 83.1517Z" fill="black"/>
<path d="M237.336 82.9982C236.966 83.8781 236.51 84.5256 235.753 84.2075C234.995 83.8895 235.142 83.1006 235.511 82.2206C235.88 81.3406 236.333 80.7029 237.09 81.0209C237.848 81.339 237.705 82.1182 237.336 82.9982Z" fill="#00FF0A"/>
<path d="M238.442 91.7507C238.339 91.9969 234.268 91.5491 232.91 90.9791C231.552 90.409 228.381 87.8165 228.484 87.5703C228.588 87.3242 229.741 89.6489 234.025 88.3236C236.078 92.3092 238.546 91.5046 238.442 91.7507Z" fill="black"/>
<circle cx="171" cy="99" r="9" transform="rotate(115.797 171 99)" fill="#00FF0A"/>
<circle cx="175.209" cy="96.0364" r="2.5" transform="rotate(115.797 175.209 96.0364)" fill="black"/>
<circle cx="171.292" cy="104.139" r="2.5" transform="rotate(115.797 171.292 104.139)" fill="black"/>
<circle cx="331.02" cy="108.02" r="9" transform="rotate(-45.9209 331.02 108.02)" fill="#00FF0A"/>
<circle cx="326.093" cy="109.513" r="2.5" transform="rotate(-45.9209 326.093 109.513)" fill="black"/>
<circle cx="332.354" cy="103.048" r="2.5" transform="rotate(-45.9209 332.354 103.048)" fill="black"/>
<path d="M317 72.3142C317.008 73.8823 317.426 75.4688 318.212 76.8256C318.998 78.1825 320.125 79.3104 321.481 80.0977C322.837 80.885 324.376 81.3042 325.944 81.314C327.512 81.3238 329.48 80.5 330.48 79.5C330.48 79.5 327.313 71.6803 324.5 70C321.433 68.1685 317 72.3142 317 72.3142Z" fill="#FFC700"/>
<circle cx="353" cy="138" r="9" fill="#FA00FF"/>
<circle cx="353" cy="138" r="4" fill="#0041BF"/>
<path d="M397.89 58.0603C400.277 58.0443 402.562 58.9771 404.261 60.6536C405.96 62.3301 406.924 64.6129 406.94 66.9998C406.956 69.3867 406.023 71.6822 404.346 73.3813C402.67 75.0803 400.277 75.984 397.89 76L397.879 67.0376L397.89 58.0603Z" fill="#00FF0A"/>
<path d="M435.14 101.046C433.958 101.04 432.696 100.801 431.606 100.344C430.517 99.8856 429.528 99.2175 428.696 98.3774C427.865 97.5374 427.207 96.5418 426.761 95.4475C426.314 94.3533 426.087 93.1818 426.093 91.9999C426.1 90.818 426.338 89.6489 426.796 88.5593C427.254 87.4698 427.922 86.4811 428.762 85.6497C429.603 84.8183 430.598 84.1605 431.692 83.7139C432.787 83.2673 433.958 83.0406 435.14 83.0467L435.14 89.3555C434.787 89.3537 434.404 89.4214 434.076 89.555C433.749 89.6885 433.452 89.8852 433.2 90.1338C432.949 90.3824 432.749 90.678 432.612 91.0038C432.476 91.3296 432.404 91.6792 432.402 92.0326C432.4 92.386 432.468 92.7363 432.602 93.0635C432.735 93.3907 432.932 93.6884 433.181 93.9396C433.429 94.1908 433.725 94.3905 434.051 94.5275C434.376 94.6644 434.787 94.7358 435.14 94.7376L435.14 97.5L435.14 101.046Z" fill="#FA00FF"/>
<path d="M411 150C411.026 146.848 411.864 143.538 413.094 140.636C414.324 137.734 416.113 135.102 418.36 132.892C420.606 130.682 423.266 128.935 426.188 127.753C429.109 126.571 431.986 125.78 435.137 125.806L435.192 150L411 150Z" fill="#FFC700"/>
</g>
<defs>
<filter id="filter0_d_10_2" x="10.9302" y="37.1074" width="473.143" height="139.275" filterUnits="userSpaceOnUse" color-interpolation-filters="sRGB">
<feFlood flood-opacity="0" result="BackgroundImageFix"/>
<feColorMatrix in="SourceAlpha" type="matrix" values="0 0 0 0 0 0 0 0 0 0 0 0 0 0 0 0 0 0 127 0" result="hardAlpha"/>
<feOffset dx="8" dy="8"/>
<feGaussianBlur stdDeviation="8.5"/>
<feComposite in2="hardAlpha" operator="out"/>
<feColorMatrix type="matrix" values="0 0 0 0 0 0 0 0 0 0 0 0 0 0 0 0 0 0 0.66 0"/>
<feBlend mode="normal" in2="BackgroundImageFix" result="effect1_dropShadow_10_2"/>
<feBlend mode="normal" in="SourceGraphic" in2="effect1_dropShadow_10_2" result="shape"/>
</filter>
<clipPath id="clip0_10_2">
<rect width="470" height="180" fill="white"/>
</clipPath>
</defs>
</svg>
